<?xml version="1.0" encoding="UTF-8"?>
<svg width="3600pt" height="3600pt" version="1.1" viewBox="0 0 3600 3600" xmlns="http://www.w3.org/2000/svg">
 <g>
  <path d="m3340.8 680.4h-2649.6c-118.8 0-216 97.199-216 216v216h-216c-118.8 0-216 97.199-216 216v1375.2c0 118.8 97.199 216 216 216h2646c118.8 0 216-97.199 216-216v-216h216c118.8 0 216-97.199 216-216v-1375.2c3.6016-118.8-93.598-216-212.4-216zm-3153.6 2023.2v-1375.2c0-39.602 32.398-72 72-72h770.4c-248.4 158.4-417.6 439.2-417.6 759.6s169.2 601.2 417.6 759.6h-770.4c-39.598 0-72-32.402-72-72zm1324.8-1443.6c417.6 0 756 338.4 756 756s-338.4 756-756 756-756-338.4-756-756 338.4-756 756-756zm1468.8 1443.6c0 39.602-32.398 72-72 72h-914.4c248.4-158.4 417.6-439.2 417.6-759.6s-169.2-601.2-417.6-759.6h914.4c39.602 0 72 32.398 72 72zm432-432c0 39.602-32.398 72-72 72h-216v-1015.2c0-118.8-97.199-216-216-216h-2289.6v-216c0-39.602 32.398-72 72-72h2646c39.602 0 72 32.398 72 72v1375.2z"/>
  <path d="m1008 2109.6c0 43.199 32.398 75.602 75.602 75.602h61.199c72 169.2 234 277.2 421.2 277.2 162 0 262.8-79.199 331.2-151.2 14.398-14.398 21.602-32.398 21.602-54s-7.1992-39.602-21.602-54c-28.801-28.801-79.199-28.801-108 0-68.398 68.398-122.4 104.4-223.2 104.4s-190.8-46.801-248.4-126h273.6c43.199 0 75.602-32.398 75.602-75.602 0-43.199-32.398-75.602-75.602-75.602h-327.6v-25.199h327.6c43.199 0 75.602-32.398 75.602-75.602 0-43.199-32.398-75.602-75.602-75.602h-288c54-93.602 154.8-151.2 262.8-151.2 100.8 0 154.8 36 223.2 104.4 28.801 28.801 79.199 32.398 108 0 14.398-14.398 21.602-32.398 21.602-54 0-21.602-7.1992-39.602-21.602-54-68.398-68.398-169.2-147.6-331.2-147.6-194.4 0-367.2 122.4-428.4 302.4h-50.398c-43.199 0-75.602 32.398-75.602 75.602 0 43.199 32.398 75.602 75.602 75.602h25.199v25.199h-25.199c-43.207 3.6055-79.207 39.605-79.207 79.207z"/>
 </g>
</svg>
