<?xml version="1.0" encoding="UTF-8"?>
<svg width="3600pt" height="3600pt" version="1.1" viewBox="0 0 3600 3600" xmlns="http://www.w3.org/2000/svg">
 <g>
  <path d="m2513.5 715.5c31.465-29.914 32.723-79.633 2.8789-111.1-29.879-31.465-79.668-32.762-111.13-2.8438l-373.75 355.04v1167.7l373.75 355.07c15.191 14.438 34.668 21.602 54.109 21.602 20.773 0 41.543-8.207 56.953-24.445 29.914-31.465 28.656-81.254-2.8086-111.13l-324.79-308.55-0.003906-1032.8z"/>
  <path d="m1568.7 956.59-373.75-355.07c-31.465-29.914-81.215-28.621-111.06 2.8438-29.914 31.5-28.621 81.215 2.8438 111.1l324.83 308.59-0.035156 1032.8-324.79 308.55c-31.465 29.879-32.723 79.668-2.8438 111.13 15.445 16.234 36.18 24.445 56.953 24.445 19.477 0 38.953-7.1289 54.109-21.602l373.68-355.07z"/>
  <path d="m1915.2 1281.4c0 62.691-50.816 113.51-113.51 113.51-62.688 0-113.51-50.816-113.51-113.51 0-62.688 50.82-113.51 113.51-113.51 62.691 0 113.51 50.82 113.51 113.51"/>
  <path d="m1915.3 1773.3c0 62.707-50.836 113.54-113.55 113.54-62.707 0-113.54-50.836-113.54-113.54s50.836-113.54 113.54-113.54c62.711 0 113.55 50.836 113.55 113.54"/>
  <path d="m1915.2 2265.2c0 62.688-50.816 113.51-113.51 113.51-62.688 0-113.51-50.82-113.51-113.51s50.82-113.51 113.51-113.51c62.691 0 113.51 50.82 113.51 113.51"/>
  <path d="m1566.5 2610.1c0 62.688-50.82 113.51-113.51 113.51-62.691 0-113.51-50.82-113.51-113.51s50.816-113.51 113.51-113.51c62.688 0 113.51 50.82 113.51 113.51"/>
  <path d="m2278.2 2605.8c0 62.688-50.82 113.51-113.51 113.51s-113.51-50.82-113.51-113.51c0-62.691 50.82-113.51 113.51-113.51s113.51 50.82 113.51 113.51"/>
  <path d="m1915.2 789.48c0 62.688-50.816 113.51-113.51 113.51-62.688 0-113.51-50.82-113.51-113.51s50.82-113.51 113.51-113.51c62.691 0 113.51 50.82 113.51 113.51"/>
  <path d="m2225.7 357.27c0 62.688-50.82 113.51-113.51 113.51s-113.51-50.82-113.51-113.51c0-62.691 50.82-113.51 113.51-113.51s113.51 50.816 113.51 113.51"/>
  <path d="m1640.7 444.56c0 62.691-50.82 113.51-113.51 113.51s-113.51-50.816-113.51-113.51c0-62.688 50.82-113.51 113.51-113.51s113.51 50.82 113.51 113.51"/>
  <path d="m1997.6 2948.4-118.98 119.02v-383.07c0-43.379-35.242-78.625-78.59-78.625-43.414 0-78.59 35.242-78.59 78.625v383.04l-118.98-118.98c-30.707-30.707-80.461-30.707-111.1-0.035156-30.742 30.742-30.742 80.426-0.035156 111.17l308.7 308.73 308.73-308.73c30.742-30.707 30.742-80.426 0-111.13-30.629-30.672-80.418-30.672-111.16 0z"/>
 </g>
</svg>
