<?xml version="1.0" encoding="UTF-8"?>
<svg width="1200pt" height="1200pt" version="1.1" viewBox="0 0 1200 1200" xmlns="http://www.w3.org/2000/svg">
 <path d="m599.29 9.918c325.86 0 589.38 264.93 589.38 589.38 0 325.86-263.52 589.38-589.38 589.38-324.44 0-589.38-263.52-589.38-589.38 0-324.44 264.93-589.38 589.38-589.38zm126.09 229.52h59.504c45.336 0 80.754 35.418 80.754 80.754v559.62c0 43.918-35.418 80.754-80.754 80.754h-59.504c-43.918 0-79.34-36.836-79.34-80.754v-559.62c0-45.336 35.418-80.754 79.34-80.754zm-311.69 0h59.504c45.336 0 80.754 35.418 80.754 80.754v559.62c0 43.918-35.418 80.754-80.754 80.754h-59.504c-43.918 0-80.754-36.836-80.754-80.754v-559.62c0-45.336 36.836-80.754 80.754-80.754zm0 58.086h59.504c12.75 0 22.668 9.918 22.668 22.668v559.62c0 11.336-9.918 22.668-22.668 22.668h-59.504c-11.336 0-22.668-11.336-22.668-22.668v-559.62c0-12.75 11.336-22.668 22.668-22.668zm311.69 0h59.504c12.75 0 22.668 9.918 22.668 22.668v559.62c0 11.336-9.918 22.668-22.668 22.668h-59.504c-11.336 0-21.25-11.336-21.25-22.668v-559.62c0-12.75 9.918-22.668 21.25-22.668zm-126.09-229.52c293.27 0 531.29 238.02 531.29 531.29 0 293.27-238.02 531.29-531.29 531.29s-531.29-238.02-531.29-531.29c0-293.27 238.02-531.29 531.29-531.29z" fill-rule="evenodd"/>
</svg>
