<?xml version="1.0" encoding="UTF-8"?>
<svg width="3600pt" height="3600pt" version="1.1" viewBox="0 0 3600 3600" xmlns="http://www.w3.org/2000/svg">
 <g>
  <path d="m3240 360h-2880v2280h560.4l-203.64 657.96 229.32 70.922 151.2-488.88h1405.6l151.2 488.88 229.32-70.922-203.75-657.96h560.4zm-774.48 2400h-1331l37.078-120h1257zm654.48-240h-2640v-2040h2640z"/>
  <path d="m840 720h240v120h-240z"/>
  <path d="m2640 720h240v120h-240z"/>
  <path d="m840 2160h720v120h-720z"/>
  <path d="m1800 2160h480v120h-480z"/>
  <path d="m840 1080h720v120h-720z"/>
  <path d="m1800 1080h720v120h-720z"/>
  <path d="m840 1440h960v120h-960z"/>
  <path d="m840 1800h1560v120h-1560z"/>
  <path d="m1320 720h1080v120h-1080z"/>
  <path d="m2160 1440h600v120h-600z"/>
 </g>
</svg>
