<?xml version="1.0" encoding="UTF-8"?>
<svg width="1200pt" height="1200pt" version="1.1" viewBox="0 0 1200 1200" xmlns="http://www.w3.org/2000/svg">
 <path d="m597.84 330.14 14.297 34.922c0.28125 0.70312 0.89062 1.125 1.6406 1.1719l37.641 2.7656c0.79688 0.046875 1.4062 0.5625 1.6875 1.3125 0.23438 0.75 0.046875 1.5469-0.60938 2.0625l-28.828 24.375c-0.5625 0.46875-0.79688 1.1719-0.60938 1.9219l9 36.656c0.1875 0.75-0.09375 1.5469-0.75 2.0156s-1.4531 0.46875-2.1562 0.09375l-32.109-19.875c-0.65625-0.375-1.3594-0.375-2.0156 0l-32.109 19.875c-0.65625 0.42188-1.5 0.375-2.1562-0.09375s-0.9375-1.2188-0.75-2.0156l9-36.656c0.1875-0.70312-0.046875-1.4531-0.60938-1.9219l-28.828-24.375c-0.60938-0.51562-0.84375-1.3125-0.60938-2.0625s0.89062-1.2656 1.6875-1.3125l37.641-2.7656c0.75-0.046875 1.3594-0.46875 1.6406-1.1719l14.297-34.922c0.28125-0.75 0.98438-1.1719 1.7812-1.1719s1.4531 0.46875 1.7812 1.1719zm137.95 0 14.297 34.922c0.28125 0.70312 0.89062 1.125 1.6406 1.1719l37.641 2.7656c0.79688 0.046875 1.4062 0.5625 1.6875 1.3125 0.23438 0.75 0.046875 1.5469-0.60938 2.0625l-28.828 24.375c-0.5625 0.46875-0.79688 1.1719-0.60938 1.9219l9 36.656c0.1875 0.75-0.09375 1.5469-0.75 2.0156s-1.4531 0.46875-2.1562 0.09375l-32.109-19.875c-0.65625-0.375-1.3594-0.375-2.0156 0l-32.109 19.875c-0.65625 0.42188-1.5 0.375-2.1562-0.09375s-0.9375-1.2188-0.75-2.0156l9-36.656c0.1875-0.70312-0.046875-1.4531-0.60938-1.9219l-28.828-24.375c-0.60938-0.51562-0.84375-1.3125-0.60938-2.0625s0.89062-1.2656 1.6875-1.3125l37.641-2.7656c0.75-0.046875 1.3594-0.46875 1.6406-1.1719l14.297-34.922c0.28125-0.75 0.98438-1.1719 1.7812-1.1719s1.4531 0.46875 1.7812 1.1719zm137.95 0 14.297 34.922c0.28125 0.70312 0.89062 1.125 1.6406 1.1719l37.641 2.7656c0.79688 0.046875 1.4062 0.5625 1.6875 1.3125 0.23438 0.75 0.046875 1.5469-0.60938 2.0625l-28.828 24.375c-0.5625 0.46875-0.79688 1.1719-0.60938 1.9219l9 36.656c0.1875 0.75-0.09375 1.5469-0.75 2.0156s-1.4531 0.46875-2.1562 0.09375l-32.109-19.875c-0.65625-0.375-1.3594-0.375-2.0156 0l-32.109 19.875c-0.65625 0.42188-1.5 0.375-2.1562-0.09375s-0.9375-1.2188-0.75-2.0156l9-36.656c0.1875-0.70312-0.046875-1.4531-0.60938-1.9219l-28.828-24.375c-0.60938-0.51562-0.84375-1.3125-0.60938-2.0625s0.89062-1.2656 1.6875-1.3125l37.641-2.7656c0.75-0.046875 1.3594-0.46875 1.6406-1.1719l14.297-34.922c0.28125-0.75 0.98438-1.1719 1.7812-1.1719s1.4531 0.46875 1.7812 1.1719zm-275.95 244.45 14.297 34.922c0.28125 0.70312 0.89062 1.125 1.6406 1.1719l37.641 2.7656c0.79688 0.046875 1.4062 0.5625 1.6875 1.3125 0.23438 0.75 0.046875 1.5469-0.60938 2.0625l-28.828 24.375c-0.5625 0.46875-0.79688 1.1719-0.60938 1.9219l9 36.656c0.1875 0.75-0.09375 1.5469-0.75 2.0156s-1.4531 0.46875-2.1562 0.09375l-32.109-19.875c-0.65625-0.375-1.3594-0.375-2.0156 0l-32.109 19.875c-0.65625 0.42188-1.5 0.375-2.1562-0.09375s-0.9375-1.2188-0.75-2.0156l9-36.656c0.1875-0.70312-0.046875-1.4531-0.60938-1.9219l-28.828-24.375c-0.60938-0.51562-0.84375-1.3125-0.60938-2.0625s0.89062-1.2656 1.6875-1.3125l37.641-2.7656c0.75-0.046875 1.3594-0.46875 1.6406-1.1719l14.297-34.922c0.28125-0.75 0.98438-1.1719 1.7812-1.1719s1.4531 0.46875 1.7812 1.1719zm137.95 0 14.297 34.922c0.28125 0.70312 0.89062 1.125 1.6406 1.1719l37.641 2.7656c0.79688 0.046875 1.4062 0.5625 1.6875 1.3125 0.23438 0.75 0.046875 1.5469-0.60938 2.0625l-28.828 24.375c-0.5625 0.46875-0.79688 1.1719-0.60938 1.9219l9 36.656c0.1875 0.75-0.09375 1.5469-0.75 2.0156s-1.4531 0.46875-2.1562 0.09375l-32.109-19.875c-0.65625-0.375-1.3594-0.375-2.0156 0l-32.109 19.875c-0.65625 0.42188-1.5 0.375-2.1562-0.09375s-0.9375-1.2188-0.75-2.0156l9-36.656c0.1875-0.70312-0.046875-1.4531-0.60938-1.9219l-28.828-24.375c-0.60938-0.51562-0.84375-1.3125-0.60938-2.0625s0.89062-1.2656 1.6875-1.3125l37.641-2.7656c0.75-0.046875 1.3594-0.46875 1.6406-1.1719l14.297-34.922c0.28125-0.75 0.98438-1.1719 1.7812-1.1719s1.4531 0.46875 1.7812 1.1719zm-137.95 244.45 14.297 34.922c0.28125 0.70312 0.89062 1.125 1.6406 1.1719l37.641 2.7656c0.79688 0.046875 1.4062 0.5625 1.6875 1.3125 0.23438 0.75 0.046875 1.5469-0.60938 2.0625l-28.828 24.375c-0.5625 0.46875-0.79688 1.1719-0.60938 1.9219l9 36.656c0.1875 0.75-0.09375 1.5469-0.75 2.0156s-1.4531 0.46875-2.1562 0.09375l-32.109-19.875c-0.65625-0.375-1.3594-0.375-2.0156 0l-32.109 19.875c-0.65625 0.42188-1.5 0.375-2.1562-0.09375s-0.9375-1.2188-0.75-2.0156l9-36.656c0.1875-0.70312-0.046875-1.4531-0.60938-1.9219l-28.828-24.375c-0.60938-0.51562-0.84375-1.3125-0.60938-2.0625s0.89062-1.2656 1.6875-1.3125l37.641-2.7656c0.75-0.046875 1.3594-0.46875 1.6406-1.1719l14.297-34.922c0.28125-0.75 0.98438-1.1719 1.7812-1.1719s1.4531 0.46875 1.7812 1.1719zm-106.97-498.61 15.516-12.094c6.2344-4.875 15.234-3.75 20.109 2.4844s3.75 15.234-2.4844 20.109l-32.672 25.547v85.266c0 7.9219-6.4219 14.391-14.391 14.391h-117.66c-7.9219 0-14.391-6.4219-14.391-14.391v-117.66c0-7.9219 6.4219-14.391 14.391-14.391h117.66c6.7031 0 12.328 4.5938 13.922 10.781zm-97.219 60.188c-5.3906-5.8125-5.0625-14.859 0.75-20.25s14.859-5.0625 20.25 0.75l10.172 10.969 37.734-29.484v-4.1719h-88.922v88.922h88.922v-48.422l-29.859 23.344c-5.8125 5.0625-14.625 4.6406-19.922-1.0312l-19.125-20.578zm589.36-162.37-108.84-109.12v106.69c0 0.70312 0.28125 1.3125 0.70312 1.7812 0.42188 0.42188 1.0312 0.70312 1.6875 0.70312h106.41zm20.203 813.84 0.046876-785.11h-126.61c-8.5781 0-16.359-3.5156-22.031-9.2344-5.625-5.6719-9.1406-13.453-9.1406-21.984v-126.98h-552.98c-2.0156 0-3.7969 0.79688-5.1094 2.1094s-2.1562 3.1406-2.1562 5.2031v936.05c0 2.0156 0.79688 3.8438 2.1562 5.2031 1.2656 1.3125 3.0938 2.1094 5.1094 2.1094h703.55c2.0156 0 3.7969-0.79688 5.1094-2.1094s2.1562-3.1406 2.1562-5.2031zm-512.34-467.21 15.516-12.094c6.2344-4.875 15.234-3.75 20.109 2.4844s3.75 15.234-2.4844 20.109l-32.672 25.547v85.266c0 7.9219-6.4219 14.391-14.391 14.391h-117.66c-7.9219 0-14.391-6.4219-14.391-14.391v-117.66c0-7.9219 6.4219-14.391 14.391-14.391h117.66c6.7031 0 12.328 4.5938 13.922 10.781zm-97.219 60.188 19.125 20.578c5.2969 5.6719 14.109 6.0938 19.922 1.0312l29.859-23.344v48.422h-88.922v-88.922h88.922v4.1719l-37.734 29.484-10.172-10.969c-5.3906-5.8125-14.484-6.1406-20.25-0.75-5.8125 5.3906-6.1406 14.484-0.75 20.25zm97.219 184.31 15.516-12.094c6.2344-4.875 15.234-3.75 20.109 2.4844 4.875 6.2344 3.75 15.234-2.4844 20.109l-32.672 25.547v85.266c0 7.9219-6.4219 14.391-14.391 14.391h-117.66c-7.9219 0-14.391-6.4219-14.391-14.391v-117.66c0-7.9219 6.4219-14.391 14.391-14.391h117.66c6.7031 0 12.328 4.5938 13.922 10.781zm-97.219 60.188 19.125 20.578c5.2969 5.6719 14.109 6.0938 19.922 1.0312l29.859-23.344v48.422h-88.922v-88.922h88.922v4.1719l-37.734 29.484-10.172-10.969c-5.3906-5.8125-14.484-6.1406-20.25-0.75-5.8125 5.3906-6.1406 14.484-0.75 20.25zm-137.11-708.98h-52.5c-2.0156 0-3.7969 0.79687-5.1094 2.1094s-2.1562 3.1406-2.1562 5.2031v936.05c0 2.0156 0.79688 3.8438 2.1562 5.2031 1.2656 1.3125 3.0938 2.1094 5.1094 2.1094h703.55c2.0156 0 3.7969-0.79687 5.1094-2.1094s2.1562-3.1406 2.1562-5.2031v-35.812h-622.36c-9.8906 0-18.891-4.0781-25.406-10.641-6.5156-6.5156-10.547-15.516-10.547-25.406l-0.046875-871.5zm687.05 907.55h52.5c9.8906 0 18.891-4.0781 25.406-10.641 6.5156-6.5156 10.547-15.516 10.547-25.406v-799.45c0-4.3594-1.9219-8.25-4.9688-10.875l-156.24-156.66c-2.625-3.0938-6.5625-5.0156-10.922-5.0156l-567.42-0.046875c-9.8906 0-18.891 4.0781-25.406 10.641-6.5156 6.5156-10.547 15.516-10.547 25.406v35.812h-52.5c-9.8906 0-18.891 4.0781-25.406 10.641-6.5156 6.5156-10.547 15.516-10.547 25.406v936.05c0 9.8906 4.0312 18.844 10.547 25.406 6.5625 6.5625 15.562 10.641 25.406 10.641h703.55c9.8906 0 18.891-4.0781 25.406-10.641 6.5156-6.5156 10.547-15.516 10.547-25.406v-35.812z" fill-rule="evenodd"/>
</svg>
