<?xml version="1.0" encoding="UTF-8"?>
<svg width="3600pt" height="3600pt" version="1.1" viewBox="0 0 3600 3600" xmlns="http://www.w3.org/2000/svg">
 <g>
  <path d="m198 2516.4c-21.602 0-36 14.398-36 36 0 21.602 14.398 36 36 36h2664c10.801 0 18-3.6016 25.199-10.801l540-500.4c14.398-14.398 14.398-36 3.6016-50.398-14.398-14.398-36-14.398-50.398-3.6016l-532.8 493.2h-802.8v-176.4h817.2c10.801 0 18-3.6016 25.199-10.801l540-500.4c14.398-14.398 14.398-36 3.6016-50.398-14.398-14.398-36-14.398-50.398-3.6016l-532.8 493.2h-802.8v-176.4h817.2c10.801 0 18-3.6016 25.199-10.801l540-500.4c14.398-14.398 14.398-36 3.6016-50.398-14.398-14.398-36-14.398-50.398-3.6016l-532.8 493.2h-802.8v-176.4h817.2c10.801 0 18-3.6016 25.199-10.801l540-500.4c14.398-14.398 14.398-36 3.6016-50.398-14.398-14.398-36-14.398-50.398-3.6016l-532.8 489.6h-802.8v-176.4h817.2c10.801 0 18-3.6016 25.199-10.801l540-500.4c10.801-10.801 14.398-25.199 10.801-39.602-7.1992-14.398-18-21.602-32.398-21.602h-792c10.801-10.801 14.398-25.199 7.1992-39.602-7.1992-14.398-18-21.602-32.398-21.602l-997.2 0.003906c-10.801 0-18 3.6016-25.199 10.801l-57.602 54h-7.1992l-763.2-0.003906c-10.801 0-18 3.6016-25.199 10.801l-540 500.4c-10.801 10.801-14.398 25.199-10.801 39.602 7.1992 14.398 18 21.602 32.398 21.602h777.6v176.4h-774c-21.602 0-36 14.398-36 36 0 21.602 14.398 36 36 36h774v176.4l-774 0.003906c-21.602 0-36 14.398-36 36 0 21.602 14.398 36 36 36h774v176.4h-774c-21.602 0-36 14.398-36 36s14.398 36 36 36h774v176.4zm2358-1425.6h752.4l-460.8 428.4h-770.4l464.4-432c3.6016 3.6016 10.801 3.6016 14.402 3.6016zm-1803.6 0h680.4l-446.4 417.6c-3.6016 3.6016-7.1992 7.1992-7.1992 10.801h-687.6zm291.6 457.2 561.6-522h892.8l-514.8 482.4c-7.1992 7.1992-10.801 18-10.801 25.199v982.8h-928.8z"/>
  <path d="m1760.4 2232c-57.602 57.602-111.6 93.602-201.6 93.602-111.6 0-208.8-64.801-252-165.6h270c14.398 0 28.801-14.398 28.801-28.801 0-14.398-14.398-28.801-28.801-28.801h-291.6c-3.6016-18-3.6016-32.398-3.6016-50.398 0-10.801 0-21.602 3.6016-32.398h291.6c14.398 0 28.801-14.398 28.801-28.801 0-14.398-14.398-28.801-28.801-28.801h-280.8c39.602-108 144-183.6 259.2-183.6 90 0 144 32.398 201.6 93.602 10.801 10.801 28.801 10.801 43.199 0 7.1992-7.1992 7.1992-14.398 7.1992-21.602 0-7.1992-3.6016-14.398-7.1992-21.602-54-54-126-108-244.8-108-147.6 0-280.8 100.8-320.4 244.8h-64.801c-14.398 0-28.801 14.398-28.801 28.801 0 14.398 14.398 28.801 28.801 28.801h54c0 10.801-3.6016 21.602-3.6016 32.398 0 18 0 36 3.6016 50.398h-54c-14.398 0-28.801 14.398-28.801 28.801 0 14.398 14.398 28.801 28.801 28.801h72c46.801 133.2 172.8 223.2 313.2 223.2 115.2 0 187.2-54 244.8-111.6 7.1992-7.1992 7.1992-14.398 7.1992-21.602 0-7.1992-3.6016-14.398-7.1992-21.602-10.797-10.793-28.797-10.793-39.598 0.007812z"/>
 </g>
</svg>
