<?xml version="1.0" encoding="UTF-8"?>
<svg width="1200pt" height="1200pt" version="1.1" viewBox="0 0 1200 1200" xmlns="http://www.w3.org/2000/svg">
 <path d="m1012.5 75h-825c-63.75 0-112.5 48.75-112.5 112.5v825c0 63.75 48.75 112.5 112.5 112.5h825c63.75 0 112.5-48.75 112.5-112.5v-825c0-63.75-48.75-112.5-112.5-112.5zm-172.5 765c-131.25 131.25-345 131.25-476.25 0s-131.25-345 0-476.25 345-131.25 476.25 0c131.25 127.5 131.25 341.25 0 476.25zm-240-502.5c-146.25 3.75-262.5 120-258.75 266.25s120 262.5 266.25 258.75 262.5-120 258.75-266.25c0-67.5-30-135-78.75-183.75s-116.25-75-187.5-75zm138.75 348.75c15 15 18.75 37.5 3.75 52.5s-37.5 18.75-52.5 3.75l-90-90-86.25 86.25c-15 15-41.25 11.25-52.5-3.75s-11.25-33.75 0-48.75l86.25-86.25-86.25-86.25c-15-15-11.25-41.25 3.75-52.5s33.75-11.25 48.75 0l86.25 86.25 86.25-86.25c15-15 41.25-11.25 52.5 3.75s11.25 33.75 0 48.75l-86.25 86.25z"/>
</svg>
