<?xml version="1.0" encoding="UTF-8"?>
<svg width="3600pt" height="3600pt" version="1.1" viewBox="0 0 3600 3600" xmlns="http://www.w3.org/2000/svg">
 <g>
  <path d="m1296 3366c-426.78 0-774-347.22-774-774s347.22-774 774-774 774 347.22 774 774-347.22 774-774 774zm0-1440c-367.23 0-666 298.77-666 666s298.77 666 666 666 666-298.77 666-666-298.77-666-666-666z"/>
  <path d="m1794.5 2646c-29.844 0-54-24.191-54-54 0-245.09-199.37-444.46-444.46-444.46-29.844 0-54-24.191-54-54 0-29.809 24.156-54 54-54 304.6 0 552.46 247.82 552.46 552.46 0 29.809-24.191 54-54 54z"/>
  <path d="m1849.9 2724.9c0 30.602-24.805 55.406-55.402 55.406-30.602 0-55.406-24.805-55.406-55.406 0-30.598 24.805-55.402 55.406-55.402 30.598 0 55.402 24.805 55.402 55.402"/>
  <path d="m2520 2106c-327.53 0-594-266.47-594-594s266.47-594 594-594 594 266.47 594 594-266.47 594-594 594zm0-1080c-267.98 0-486 218.02-486 486s218.02 486 486 486 486-218.02 486-486-218.02-486-486-486z"/>
  <path d="m1368 1215c-253.08 0-459-205.92-459-459s205.92-459 459-459 459 205.92 459 459-205.92 459-459 459zm0-810c-193.54 0-351 157.46-351 351s157.46 351 351 351 351-157.46 351-351-157.46-351-351-351z"/>
  <path d="m2893.9 1566c-29.809 0-54-24.156-54-54 0-176.36-143.46-319.82-319.86-319.82-29.809 0-54-24.156-54-54s24.191-54 54-54c235.95 0 427.86 191.91 427.86 427.82 0 29.844-24.191 54-54 54z"/>
 </g>
</svg>
