<?xml version="1.0" encoding="UTF-8"?>
<svg width="3600pt" height="3600pt" version="1.1" viewBox="0 0 3600 3600" xmlns="http://www.w3.org/2000/svg">
 <g>
  <path d="m1800 518.4c-777.6 0-1411.2 633.6-1411.2 1411.2 0 777.6 633.6 1411.2 1411.2 1411.2s1411.2-633.6 1411.2-1411.2c0-777.6-633.6-1411.2-1411.2-1411.2zm0 144c702 0 1267.2 565.2 1267.2 1267.2 0 698.4-565.2 1267.2-1267.2 1267.2s-1267.2-568.8-1267.2-1267.2c0-702 565.2-1267.2 1267.2-1267.2z"/>
  <path d="m1728 410.4v180h144v-180z"/>
  <path d="m1533.6 262.8c-32.402-3.6016-64.801 14.398-79.203 43.199-18 28.801-18 61.199 0 90 14.402 28.801 46.801 46.801 79.203 46.801h532.8c32.402 0 64.801-18 79.203-46.801 18-28.801 18-61.199 0-90-14.402-28.801-46.801-46.801-79.203-43.199z"/>
  <path d="m2869.2 748.8c-28.801 0-54 14.398-75.598 32.398l-64.801 68.402c-28.801 25.199-39.602 64.797-28.801 104.4 7.1992 36 39.602 68.398 75.602 75.602 39.598 10.797 79.199 0 104.4-28.801l68.398-64.801c32.402-32.398 39.602-79.199 25.203-122.4-18-39.602-61.203-64.801-104.4-64.801z"/>
  <path d="m1800 1854c-21.602 3.6016-39.602 10.801-50.398 25.199-14.402 10.801-21.602 28.801-21.602 50.402v669.6c0 25.199 14.398 50.402 36 61.199 21.602 14.402 50.398 14.402 72 0 21.602-10.797 36-36 36-61.199v-669.6c0-21.602-7.1992-39.602-21.602-54-14.398-10.801-32.398-21.602-50.398-21.602z"/>
  <path d="m2268 1378.8c-18 0-36 7.1992-50.398 21.598l-468 478.8c-18 18-25.203 43.199-21.602 68.402 7.1992 25.199 28.801 46.797 54 50.398 25.199 7.1992 50.398 0 68.398-18l471.6-478.8c18-21.598 25.199-50.398 14.398-79.199-10.797-28.801-39.598-43.199-68.398-43.199z"/>
 </g>
</svg>
