<?xml version="1.0" encoding="UTF-8"?>
<svg width="3600pt" height="3600pt" version="1.1" viewBox="0 0 3600 3600" xmlns="http://www.w3.org/2000/svg">
 <path d="m2476.8 1057.7h-648v-148.68c0-10.738-5.7305-20.664-15.031-26.031-9.3008-5.3711-20.758-5.3711-30.059 0-9.3008 5.3672-15.031 15.293-15.031 26.031v148.68h-648c-41.434-0.007813-80.648 18.715-106.7 50.938-26.047 32.223-36.129 74.496-27.434 115 8.6953 40.512 35.234 74.922 72.211 93.617l11.16 5.7617v781.2c0.09375 22.121 8.9219 43.312 24.566 58.953 15.641 15.645 36.828 24.473 58.953 24.566h612v160.56l-422.28 318.6c-6.4453 4.7383-10.723 11.863-11.875 19.781-1.1484 7.918 0.92578 15.965 5.7539 22.34 4.8555 6.2852 11.961 10.441 19.824 11.582 7.8594 1.1406 15.855-0.81641 22.297-5.4609l390.96-291.24v267.12-0.003906c0 10.738 5.7266 20.664 15.027 26.031 9.3008 5.3711 20.762 5.3711 30.062 0 9.3008-5.3672 15.027-15.293 15.027-26.031v-267.12l390.96 291.24v0.003906c8.6484 5.2227 19.336 5.7852 28.48 1.4922 9.1484-4.2891 15.547-12.863 17.059-22.855 1.5117-9.9883-2.0664-20.074-9.5391-26.879l-427.32-317.88v-160.56h612c22.121-0.097656 43.312-8.9258 58.953-24.57 15.645-15.641 24.473-36.828 24.566-58.949v-781.2l11.16-5.7617v0.003907c36.977-18.699 63.516-53.109 72.211-93.617 8.6953-40.512-1.3867-82.781-27.434-115-26.047-32.223-65.262-50.945-106.7-50.941zm-11.16 1070.6h-1332v-796.32h1332zm11.16-856.44h-1353.6c-27.523 0-52.957-14.684-66.719-38.52s-13.762-53.203 0-77.039c13.762-23.836 39.195-38.52 66.719-38.52h1353.6c27.523 0 52.957 14.684 66.719 38.52 13.762 23.836 13.762 53.203 0 77.039s-39.195 38.52-66.719 38.52z"/>
</svg>
