<?xml version="1.0" encoding="UTF-8"?>
<svg width="1200pt" height="1200pt" version="1.1" viewBox="0 0 1200 1200" xmlns="http://www.w3.org/2000/svg">
 <path d="m75 112.5v112.5h318.75v-150h-281.25c-20.711 0-37.5 16.789-37.5 37.5z"/>
 <path d="m431.25 1125h337.5v-862.5h-337.5zm56.25-750c0-20.711 16.789-37.5 37.5-37.5h150c20.711 0 37.5 16.789 37.5 37.5v75c0 20.711-16.789 37.5-37.5 37.5h-150c-20.711 0-37.5-16.789-37.5-37.5zm0 187.5c0-20.711 16.789-37.5 37.5-37.5h150c20.711 0 37.5 16.789 37.5 37.5v75c0 20.711-16.789 37.5-37.5 37.5h-150c-20.711 0-37.5-16.789-37.5-37.5zm0 187.5c0-20.711 16.789-37.5 37.5-37.5h150c20.711 0 37.5 16.789 37.5 37.5v75c0 20.711-16.789 37.5-37.5 37.5h-150c-20.711 0-37.5-16.789-37.5-37.5z"/>
 <path d="m75 1087.5c0 20.711 16.789 37.5 37.5 37.5h281.25v-862.5h-318.75zm37.5-712.5c0-20.711 16.789-37.5 37.5-37.5h150c20.711 0 37.5 16.789 37.5 37.5v75c0 20.711-16.789 37.5-37.5 37.5h-150c-20.711 0-37.5-16.789-37.5-37.5zm0 187.5c0-20.711 16.789-37.5 37.5-37.5h150c20.711 0 37.5 16.789 37.5 37.5v75c0 20.711-16.789 37.5-37.5 37.5h-150c-20.711 0-37.5-16.789-37.5-37.5zm0 187.5c0-20.711 16.789-37.5 37.5-37.5h150c20.711 0 37.5 16.789 37.5 37.5v75c0 20.711-16.789 37.5-37.5 37.5h-150c-20.711 0-37.5-16.789-37.5-37.5zm0 187.5c0-20.711 16.789-37.5 37.5-37.5h150c20.711 0 37.5 16.789 37.5 37.5v75c0 20.711-16.789 37.5-37.5 37.5h-150c-20.711 0-37.5-16.789-37.5-37.5z"/>
 <path d="m1087.5 75h-281.25v150h318.75v-112.5c0-20.711-16.789-37.5-37.5-37.5z"/>
 <path d="m431.25 75h337.5v150h-337.5z"/>
 <path d="m806.25 1125h281.25c20.711 0 37.5-16.789 37.5-37.5v-825h-318.75zm56.25-750c0-20.711 16.789-37.5 37.5-37.5h150c20.711 0 37.5 16.789 37.5 37.5v75c0 20.711-16.789 37.5-37.5 37.5h-150c-20.711 0-37.5-16.789-37.5-37.5zm0 187.5c0-20.711 16.789-37.5 37.5-37.5h150c20.711 0 37.5 16.789 37.5 37.5v75c0 20.711-16.789 37.5-37.5 37.5h-150c-20.711 0-37.5-16.789-37.5-37.5zm0 187.5c0-20.711 16.789-37.5 37.5-37.5h150c20.711 0 37.5 16.789 37.5 37.5v75c0 20.711-16.789 37.5-37.5 37.5h-150c-20.711 0-37.5-16.789-37.5-37.5zm0 187.5c0-20.711 16.789-37.5 37.5-37.5h150c20.711 0 37.5 16.789 37.5 37.5v75c0 20.711-16.789 37.5-37.5 37.5h-150c-20.711 0-37.5-16.789-37.5-37.5z"/>
</svg>
