<?xml version="1.0" encoding="UTF-8"?>
<svg width="3600pt" height="3600pt" version="1.1" viewBox="0 0 3600 3600" xmlns="http://www.w3.org/2000/svg">
 <g>
  <path d="m2876.4 3510h-2152.8c-241.2 0-439.2-198-439.2-439.2l-0.003906-2541.6c0-241.2 198-439.2 439.2-439.2h2149.2c241.2 0 439.2 198 439.2 439.2v2541.6c3.6016 241.2-194.4 439.2-435.6 439.2zm-2152.8-3322.8c-187.2 0-342 154.8-342 342v2541.6c0 187.2 154.8 342 342 342h2149.2c187.2 0 342-154.8 342-342v-2541.6c0-187.2-154.8-342-342-342z"/>
  <path d="m2851.2 1018.8h-1558.8c-21.602 0-36-18-36-36v-14.398c0-21.602 18-36 36-36h1555.2c21.602 0 36 18 36 36v14.398c3.6016 18-14.398 36-32.398 36z"/>
  <path d="m2844 1033.2h-1544.4c-32.398 0-61.199-25.199-61.199-61.199 0-32.398 25.199-61.199 61.199-61.199h1544.4c32.398 0 61.199 25.199 61.199 61.199-3.5977 36-28.801 61.199-61.199 61.199zm-1544.4-86.398c-14.398 0-28.801 10.801-28.801 28.801 0 14.398 10.801 28.801 28.801 28.801l1544.4-0.003906c14.398 0 28.801-10.801 28.801-28.801 0-14.398-10.801-28.801-28.801-28.801z"/>
  <path d="m2851.2 1843.2h-1558.8c-21.602 0-36-18-36-36v-14.398c0-21.602 18-36 36-36h1555.2c21.602 0 36 18 36 36v14.398c3.6016 21.602-14.398 36-32.398 36z"/>
  <path d="m2844 1861.2h-1544.4c-32.398 0-61.199-25.199-61.199-61.199s25.199-61.199 61.199-61.199h1544.4c32.398 0 61.199 25.199 61.199 61.199s-28.801 61.199-61.199 61.199zm-1544.4-90c-14.398 0-28.801 10.801-28.801 28.801s10.801 28.801 28.801 28.801h1544.4c14.398 0 28.801-10.801 28.801-28.801s-10.801-28.801-28.801-28.801z"/>
  <path d="m2851.2 2667.6h-1558.8c-21.602 0-36-18-36-36v-14.398c0-21.602 18-36 36-36h1555.2c21.602 0 36 18 36 36v14.398c3.6016 21.598-14.398 36-32.398 36z"/>
  <path d="m2844 2685.6h-1544.4c-32.398 0-61.199-25.199-61.199-61.199 0-32.398 25.199-61.199 61.199-61.199l1544.4-0.003906c32.398 0 61.199 25.199 61.199 61.199-3.5977 32.402-28.801 61.203-61.199 61.203zm-1544.4-86.402c-14.398 0-28.801 10.801-28.801 28.801s10.801 28.801 28.801 28.801h1544.4c14.398 0 28.801-10.801 28.801-28.801s-10.801-28.801-28.801-28.801z"/>
  <path d="m910.8 1209.6h-10.801c-129.6 0-234-104.4-234-234 0-129.6 104.4-234 234-234h10.801c129.6 0 234 104.4 234 234 0 129.6-108 234-234 234zm-10.801-370.8c-75.602 0-136.8 61.199-136.8 136.8 0 75.602 61.199 136.8 136.8 136.8h10.801c75.602 0 136.8-61.199 136.8-136.8 0-75.602-61.199-136.8-136.8-136.8z"/>
  <path d="m910.8 2034h-10.801c-129.6 0-234-104.4-234-234s104.4-234 234-234h10.801c129.6 0 234 104.4 234 234s-108 234-234 234zm-10.801-370.8c-75.602 0-136.8 61.199-136.8 136.8s61.199 136.8 136.8 136.8h10.801c75.602 0 136.8-61.199 136.8-136.8s-61.199-136.8-136.8-136.8z"/>
  <path d="m910.8 2858.4h-10.801c-129.6 0-234-104.4-234-234 0-129.6 104.4-234 234-234h10.801c129.6 0 234 104.4 234 234 0 129.6-108 234-234 234zm-10.801-367.2c-75.602 0-136.8 61.199-136.8 136.8s61.199 136.8 136.8 136.8h10.801c75.602 0 136.8-61.199 136.8-136.8s-61.199-136.8-136.8-136.8z"/>
 </g>
</svg>
