<?xml version="1.0" encoding="UTF-8"?>
<svg width="1200pt" height="1200pt" version="1.1" viewBox="0 0 1200 1200" xmlns="http://www.w3.org/2000/svg">
 <path d="m642.42 103.88c-237.37 0-430.48 193.12-430.48 430.49 0 13.465 0.86328 26.699 2.1367 39.828-53.039 17.652-86.977 48.875-86.977 86.027v334.29c0 57.91 82.199 101.58 191.18 101.58 78.324 0 142.64-22.633 172.71-56.832 7.2852 0.42188 14.629 0.79297 22.199 0.79297 94.43 0 168.64-32.809 186.79-79.223 210.24-28.246 372.91-208.64 372.91-426.47-0.011719-237.36-193.11-430.48-430.48-430.48zm-168.98 890.64c0 31.02-63.73 65.578-155.16 65.578-91.453 0-155.18-34.559-155.18-65.578v-22.922c34.129 25.117 89.746 40.922 155.18 40.922 65.41 0 121.03-15.805 155.16-40.922zm0-83.566c0 31.02-63.73 65.566-155.16 65.566-91.453 0-155.18-34.547-155.18-65.566v-22.934c34.129 25.129 89.746 40.934 155.18 40.934 65.41 0 121.03-15.805 155.16-40.934zm0-83.57c0 31.008-63.73 65.566-155.16 65.566-91.453 0-155.18-34.559-155.18-65.566v-22.934c34.129 25.117 89.746 40.934 155.18 40.934 65.41 0 121.03-15.816 155.16-40.934zm0-83.578c0 30.961-66.348 65.578-155.16 65.578-91.453 0-155.18-34.57-155.18-65.578v-22.922c34.129 25.105 89.746 40.922 155.18 40.922 65.41 0 121.03-15.816 155.16-40.922zm-155.16-18c-91.453 0-155.18-34.559-155.18-65.578 0-31.008 63.73-65.578 155.18-65.578 91.43 0 155.16 34.57 155.16 65.578 0 30.969-66.348 65.578-155.16 65.578zm350.09 212.68c0 31.008-63.73 65.578-155.18 65.578-1.5703 0-3.0469-0.12109-4.5977-0.14453 0.49219-3.0977 0.83984-6.2148 0.83984-9.3945v-38.184c1.2461 0.035156 2.4609 0.14453 3.7578 0.14453 65.438 0 121.05-15.816 155.18-40.922zm0-83.582c0 31.02-63.73 65.578-155.18 65.578-1.2852 0-2.5078-0.12109-3.7578-0.16797v-47.508c1.2461 0.023437 2.4844 0.097656 3.7578 0.097656 65.438 0 121.05-15.805 155.18-40.922zm-155.17-18c-1.2617 0-2.4844-0.070313-3.7578-0.097656l0.003906-130.89c1.2852-0.023437 2.4609-0.16797 3.7578-0.16797 91.453 0 155.18 34.57 155.18 65.594-0.003906 31.02-63.734 65.566-155.19 65.566zm191.17 87v-152.57c0-57.91-82.199-101.59-191.18-101.59-1.2617 0-2.4844 0.12109-3.7578 0.12109l0.003906-9.625c0-57.91-82.199-101.58-191.16-101.58-24.613 0-47.723 2.3281-68.953 6.4453-0.81641-10.152-1.3789-20.363-1.3789-30.719 0-217.52 176.95-394.49 394.48-394.49 217.52 0 394.48 176.96 394.48 394.49 0.007812 196.43-144.34 359.71-332.52 389.52zm-43.941-704.61h-36v333.07h251.79v-36h-215.79z"/>
</svg>
