<?xml version="1.0" encoding="UTF-8"?>
<svg width="700pt" height="700pt" version="1.1" viewBox="0 0 700 700" xmlns="http://www.w3.org/2000/svg">
 <g>
  <path d="m593.94 319.65-90.719 47.266-0.003906-15.289 98.391-51.184c4.0312-2.1289 5.6562-7.1133 3.5273-11.199-2.0703-4.0352-7.1094-5.6562-11.195-3.4727l-90.719 47.266-0.003906-16.355 98.391-51.238c4.0312-2.1289 5.6562-7.1133 3.5273-11.199-2.0703-3.9766-7.1094-5.6016-11.195-3.4727l-90.719 47.207-0.003906-15.402 96.711-50.289c2.8008-1.457 4.4805-4.3125 4.4258-7.4492 0-3.1367-1.7344-5.9375-4.5938-7.3359l-150.64-74.48c-2.2969-1.1758-5.0391-1.1758-7.3359 0l-324.41 158.54c-2.8555 1.4023-4.6484 4.3125-4.6484 7.5039s1.793 6.0469 4.6484 7.4492l162.23 78.793c1.1211 0.55859 2.3516 0.83984 3.5859 0.83984 1.2891 0 2.6328-0.33594 3.8086-0.95312l104.66-54.543v15.398l-108.64 56.559-158.48-76.945c-4.0312-1.957-9.0156-0.27734-10.977 3.8672-1.957 4.1445-0.33594 9.0742 3.8086 11.031l162.23 78.793c1.1211 0.55859 2.3516 0.83984 3.5859 0.83984 1.2891 0 2.6328-0.33594 3.8086-0.95312l104.66-54.543v16.297l-108.64 56.559-158.48-76.945c-4.0312-2.0117-9.0156-0.27734-10.977 3.9219-2.0156 4.0312-0.33594 9.0742 3.8086 11.031l162.23 78.734c1.1211 0.55859 2.3516 0.89453 3.5859 0.89453 1.2891 0 2.6328-0.33594 3.8086-1.0078l104.66-54.488v15.176l-108.64 56.559-158.48-76.887c-4.0312-2.0117-9.0156-0.27344-10.977 3.8672-2.0156 4.0898-0.33594 9.0742 3.8086 11.035l162.23 78.734c1.1211 0.61719 2.3516 0.89453 3.5859 0.89453 1.2891 0 2.6328-0.33594 3.8086-1.0078l116.82-60.703 197.79-102.98c4.0312-2.0703 5.6562-7.1133 3.5273-11.145-2.0742-4.0859-7.1133-5.7109-11.199-3.582zm-194.04-1.9062-138.43-68.148 78.566-38.414 136.02 66.922zm45.473-158.03 132.39 65.41-83.496 43.453-135.36-66.637zm-162.29 218.85-143.13-69.551 102.7-50.176 138.94 68.375zm145.82-57.285c0.058594-0.058594 0.16797-0.058594 0.22656-0.11328l57.512-29.902v84.223l-78.344 40.824v-84.227z"/>
  <path d="m260.96 163.91c66.863 0 117.38-23.855 117.38-55.441s-50.457-55.441-117.38-55.441c-66.922 0-117.43 23.855-117.43 55.441s50.512 55.441 117.43 55.441zm0-94.301c59.414 0 100.8 20.496 100.8 38.863 0 18.367-41.383 38.863-100.8 38.863-59.414 0-100.8-20.496-100.8-38.863 0-18.367 41.383-38.863 100.8-38.863z"/>
  <path d="m376.32 156.74c1.9023-4.1992 0-9.1289-4.1445-10.977-4.1992-1.8477-9.0703 0-10.977 4.1992-5.7109 12.66-45.641 26.379-100.24 26.379-54.602 0-94.527-13.719-100.3-26.434-1.9023-4.1406-6.7773-6.0469-10.977-4.1406-4.1445 1.9023-6.0469 6.832-4.1445 10.973 11.258 24.867 67.703 36.234 115.42 36.234 47.711 0 104.21-11.367 115.36-36.234z"/>
  <path d="m269.25 215.99c0-4.5938-3.6953-8.2891-8.2305-8.2891-54.602 0-94.527-13.719-100.3-26.488-1.957-4.0859-6.832-5.9922-11.031-4.0859-4.1445 1.9023-6.0469 6.7734-4.1445 10.977 11.258 24.863 67.703 36.23 115.42 36.23 4.5898 0 8.2852-3.75 8.2852-8.3438z"/>
  <path d="m209.38 247.74c4.0312 0 7.5586-2.9102 8.1758-7.0547 0.73047-4.4805-2.4062-8.7344-6.9414-9.4062-34.777-5.2109-48.105-14.059-50.234-17.922-2.2383-4.0312-7.2227-5.4883-11.258-3.3047-4.0273 2.1836-5.4844 7.2266-3.3008 11.258 8.3984 15.289 38.527 22.793 62.328 26.375 0.44922 0.054688 0.83984 0.054688 1.2305 0.054688z"/>
  <path d="m159.94 243.27c-2.6328-3.7539-7.7852-4.707-11.539-2.0742-3.75 2.6328-4.7031 7.7305-2.125 11.535 4.5898 6.6094 15.176 11.875 32.367 16.016 0.67188 0.16797 1.2891 0.22266 1.9609 0.22266 3.7539 0 7.1133-2.5195 8.0625-6.3281 1.0625-4.4766-1.6797-8.957-6.1055-10.02-19.207-4.6484-22.512-9.1289-22.621-9.3516z"/>
  <path d="m403.26 248.96c3.0312 7.3125-9.957 19.648-29.012 27.551-19.055 7.9023-36.961 8.3828-39.996 1.0664-3.0312-7.3125 9.957-19.648 29.012-27.551 19.055-7.9023 36.961-8.3789 39.996-1.0664"/>
 </g>
</svg>
