<?xml version="1.0" encoding="UTF-8"?>
<svg width="3600pt" height="3600pt" version="1.1" viewBox="0 0 3600 3600" xmlns="http://www.w3.org/2000/svg">
 <path d="m1008 216c-436.56 0-792 355.45-792 792 0 436.56 355.44 792 792 792 121.01 0 235.92-27.723 338.62-76.5 44.676 148.07 183.26 256.5 345.38 256.5 197.97 0 360-162.03 360-360 0-176.01-128.34-322.67-295.88-353.25 28.129-81.113 43.875-168.21 43.875-258.75 0-436.55-355.44-792-792-792zm1764 0c-337.14 0-612 274.85-612 612s274.86 612 612 612 612-274.85 612-612-274.86-612-612-612zm-1764 144c358.73 0 648 289.27 648 648s-289.27 648-648 648-648-289.27-648-648 289.27-648 648-648zm1764 0c259.32 0 468 208.68 468 468s-208.68 468-468 468-468-208.68-468-468 208.68-468 468-468zm-1770.8 144c-19.098 0.89062-37.059 9.3359-49.934 23.469-12.871 14.137-19.602 32.809-18.707 51.906s9.3438 37.059 23.48 49.93c14.141 12.867 32.812 19.594 51.91 18.695 199.68 0 360 160.32 360 360-0.27344 19.273 7.1914 37.848 20.727 51.574 13.531 13.723 32 21.449 51.273 21.449s37.742-7.7266 51.273-21.449c13.535-13.727 21-32.301 20.727-51.574 0-277.5-226.5-504-504-504-2.25-0.10547-4.5-0.10547-6.75 0zm1800 0c-19.098 0.89062-37.059 9.3359-49.934 23.469-12.871 14.137-19.602 32.809-18.707 51.906s9.3438 37.059 23.48 49.93c14.141 12.867 32.812 19.594 51.91 18.695 33.707 0 67.086 17.07 95.625 55.125s48.375 95.938 48.375 160.88c-0.27344 19.273 7.1914 37.848 20.727 51.574 13.531 13.723 32 21.449 51.273 21.449s37.742-7.7266 51.273-21.449c13.535-13.727 21-32.301 20.727-51.574 0-94.121-27.988-181.32-77.625-247.5s-124.79-112.5-210.38-112.5c-2.25-0.10547-4.5-0.10547-6.75 0zm-1108.1 900c119.62 0.59375 214.88 96.227 214.88 216 0 120.15-95.852 216-216 216-111.48 0-202.39-82.238-214.88-190.12 87.641-64.648 161.1-147.29 216-241.88zm898.88 396c-436.56 0-792 355.44-792 792s355.44 792 792 792 792-355.44 792-792-355.44-792-792-792zm-2016 72c-197.97 0-360 162.03-360 360s162.03 360 360 360 360-162.03 360-360-162.03-360-360-360zm2016 72c358.73 0 648 289.27 648 648s-289.27 648-648 648-648-289.27-648-648 289.27-648 648-648zm-2016 72c120.14 0 216 95.855 216 216s-95.855 216-216 216-216-95.855-216-216 95.855-216 216-216zm2009.2 72c-19.098 0.89062-37.059 9.3359-49.934 23.469-12.871 14.137-19.602 32.809-18.707 51.906s9.3438 37.059 23.48 49.93c14.141 12.867 32.812 19.594 51.91 18.695 199.68 0 360 160.32 360 360-0.27344 19.273 7.1914 37.848 20.727 51.574 13.531 13.723 32 21.449 51.273 21.449s37.742-7.7266 51.273-21.449c13.535-13.727 21-32.301 20.727-51.574 0-277.5-226.5-504-504-504-2.25-0.10547-4.5-0.10547-6.75 0zm-1325.2 432c-197.97 0-360 162.03-360 360s162.03 360 360 360 360-162.03 360-360-162.03-360-360-360zm0 144c120.14 0 216 95.855 216 216s-95.855 216-216 216-216-95.855-216-216 95.855-216 216-216z"/>
</svg>
