<?xml version="1.0" encoding="UTF-8"?>
<svg width="142px" height="44px" viewBox="0 0 142 44" version="1.1" xmlns="http://www.w3.org/2000/svg" xmlns:xlink="http://www.w3.org/1999/xlink">
    <!-- Generator: Sketch 41.2 (35397) - http://www.bohemiancoding.com/sketch -->
    <title>Logo</title>
    <desc>Created with Sketch.</desc>
    <defs></defs>
    <g id="Screens" stroke="none" stroke-width="1" fill="none" fill-rule="evenodd">
        <g id="01-Story-3" transform="translate(-50.000000, -4233.000000)">
            <g id="Footer" transform="translate(0.000000, 4200.000000)">
                <g id="Logo" transform="translate(50.000000, 33.000000)">
                    <path d="M85.1662929,35.104774 C85.1662929,36.8318634 84.7270253,38.3654244 83.8492071,39.7050992 C82.9710303,41.044774 81.7037879,42.0853919 80.0499899,42.8283837 C78.3947576,43.5717333 76.4544495,43.9430504 74.2269141,43.9430504 C72.3680051,43.9430504 70.8095909,43.8124813 69.5495202,43.5524163 C68.2898081,43.2927089 66.9777424,42.8380423 65.6158333,42.1909203 L65.6158333,35.4861073 C67.0541212,36.2226602 68.5494242,36.797522 70.1024596,37.2096195 C71.6554949,37.6227902 73.0812323,37.828839 74.3789545,37.828839 C75.4998939,37.828839 76.320697,37.6345951 76.8424394,37.2482537 C77.3641818,36.8604813 77.6252323,36.3625301 77.6252323,35.7533268 C77.6252323,35.3727089 77.5205253,35.037522 77.3096768,34.752774 C77.1002626,34.4676683 76.7628333,34.1782699 76.2984646,33.8863675 C75.8330202,33.5933919 74.5955404,32.9981398 72.5849495,32.0963187 C70.7647677,31.2710504 69.3992727,30.470465 68.489899,29.6956358 C67.5794495,28.9218797 66.9045909,28.0332943 66.4660404,27.029522 C66.0260556,26.0268228 65.8069596,24.8395382 65.8069596,23.4687415 C65.8069596,20.9035057 66.7425101,18.9034732 68.6136111,17.4679285 C70.4847121,16.0338146 73.0554141,15.3158634 76.3267929,15.3158634 C79.2166364,15.3158634 82.1631364,15.9826602 85.1662929,17.3158959 L82.8566414,23.1246114 C80.2468535,21.931961 77.9938586,21.3342049 76.097298,21.3342049 C75.1176414,21.3342049 74.4051313,21.5066276 73.9597677,21.8496846 C73.5140455,22.192026 73.2910051,22.6177171 73.2910051,23.1246114 C73.2910051,23.671213 73.5739293,24.1598634 74.1408535,24.5916358 C74.7070606,25.0237659 76.2443182,25.8104 78.7508333,26.9540423 C81.157303,28.0332943 82.8272374,29.191961 83.7627879,30.4296846 C84.6990556,31.6677659 85.1662929,33.2260098 85.1662929,35.104774" id="Fill-1" fill="#458BCA"></path>
                    <path d="M97.0232929,31.9055089 L97.0232929,37.7525008 L99.6761111,37.7525008 C102.031303,37.7525008 103.208899,36.7626797 103.208899,34.7816065 C103.208899,33.854387 102.893702,33.1443057 102.263308,32.6481431 C101.632914,32.1534114 100.720672,31.9055089 99.5237121,31.9055089 L97.0232929,31.9055089 Z M97.0232929,26.4005008 L99.2945758,26.4005008 C100.376788,26.4005008 101.213369,26.1790699 101.806111,25.7337041 C102.397061,25.2897691 102.693611,24.6297691 102.693611,23.7537041 C102.693611,22.1922407 101.509202,21.4102569 99.1421768,21.4102569 L97.0232929,21.4102569 L97.0232929,26.4005008 Z M89.4815152,15.716013 L99.218197,15.716013 C103.01096,15.716013 105.827293,16.2783545 107.666838,17.4012488 C109.506025,18.5252163 110.425798,20.2741268 110.425798,22.6490537 C110.425798,24.2101593 110.024899,25.544826 109.222742,26.648761 C108.421303,27.7530537 107.363833,28.4652813 106.053919,28.7825821 L106.053919,28.9728911 C107.783737,29.4286309 109.038071,30.1909398 109.814768,31.2576715 C110.590389,32.324761 110.979455,33.7087935 110.979455,35.4097691 C110.979455,37.9363707 110.028126,39.9271024 108.124753,41.3801756 C106.221737,42.8350374 103.629162,43.5619317 100.345232,43.5619317 L89.4815152,43.5619317 L89.4815152,15.716013 Z" id="Fill-2" fill="#458BCA"></path>
                    <path d="M122.739995,29.6009106 C122.739995,34.9842927 124.618268,37.6758049 128.37302,37.6758049 C130.282131,37.6758049 131.69747,37.0226016 132.620828,35.715122 C133.54347,34.4076423 134.005328,32.3686179 134.005328,29.6009106 C134.005328,26.8196098 133.536657,24.7659187 132.601823,23.439122 C131.666631,22.1123252 130.269222,21.4491057 128.410672,21.4491057 C124.630101,21.4491057 122.739995,24.1660163 122.739995,29.6009106 M141.947288,29.6009106 C141.947288,34.2867317 140.794793,37.8485854 138.491955,40.2861138 C136.186965,42.724 132.814823,43.943122 128.37302,43.943122 C123.99397,43.943122 120.63653,42.717561 118.300702,40.2667967 C115.964874,37.8163902 114.798035,34.2477398 114.798035,29.5633496 C114.798035,24.9283252 115.960212,21.3890081 118.282773,18.9443252 C120.605333,16.5 123.981778,15.278374 128.410672,15.278374 C132.852475,15.278374 136.219237,16.4910569 138.510242,18.9153496 C140.801606,21.3410732 141.947288,24.9032846 141.947288,29.6009106" id="Fill-3" fill="#458BCA"></path>
                    <polygon id="Fill-4" fill="#458BCA" points="38.4106414 0 25.6252626 21.4634146 13.0055505 21.4634146 0 0"></polygon>
                    <polygon id="Fill-5" fill="#F7921E" points="60.8541717 0 48.7264394 0 31.6781202 29.6910569 17.0284535 29.6910569 24.8657061 43.6422764 35.7477111 43.6422764"></polygon>
                    <polygon id="Fill-6" fill="#458BCA" points="56.1534697 21.4634146 59.3542071 21.4634146 59.3542071 43.6422764 51.4097374 43.6422764 51.4219293 29.6910569"></polygon>
                </g>
            </g>
        </g>
    </g>
</svg>